<svg xmlns="http://www.w3.org/2000/svg" version="1.1" viewBox="-5.0 -10.0 110.0 135.0">
 <g>
  <path d="m79.781 14.094c0-1.7266-1.3984-3.125-3.125-3.125h-53.312c-1.7266 0-3.125 1.3984-3.125 3.125v64.051c0 0.023438-0.007812 0.039063-0.007812 0.058594 0 5.9766 4.8633 10.836 10.84 10.836h45.613c1.7266 0 3.125-1.3984 3.125-3.125v-15.426s-0.007812-0.019531-0.007812-0.03125l0.003906-56.363zm-53.316 3.125h47.066v50.148h-42.477c-1.6445 0-3.1875 0.39844-4.5859 1.0547v-51.203zm47.07 65.57h-42.48c-2.5234 0-4.5781-2.0469-4.5859-4.5703 0-0.007812 0.003906-0.011719 0.003906-0.023438v-0.054687c0.035156-2.5 2.0742-4.5234 4.5859-4.5234h42.488v9.1758z"/>
  <path d="m34.773 40.559h30.449c1.7266 0 3.125-1.3984 3.125-3.125v-10.902c0-1.7266-1.3984-3.125-3.125-3.125h-30.449c-1.7266 0-3.125 1.3984-3.125 3.125v10.902c0 1.7266 1.3984 3.125 3.125 3.125zm3.125-10.902h24.199v4.6523h-24.199z"/>
 </g>
<text x="0.0" y="117.5" font-size="5.0" font-weight="bold" font-family="Arbeit Regular, Helvetica, Arial-Unicode, Arial, Sans-serif" fill="#000000">Created by Kiki Rizky</text><text x="0.0" y="122.5" font-size="5.0" font-weight="bold" font-family="Arbeit Regular, Helvetica, Arial-Unicode, Arial, Sans-serif" fill="#000000">from Noun Project</text></svg>